
<!-- Uploaded to: SVG Repo, www.svgrepo.com, Transformed by: SVG Repo Mixer Tools -->
<svg width="20px" height="20px" viewBox="0 0 400.00 400.00" fill="#000000" transform="rotate(180)" xmlns="http://www.w3.org/2000/svg">

<g id="SVGRepo_iconCarrier"> <path d="M78.78 247.251C111.354 243.109 136.672 240.07 154.736 238.134C175.79 235.879 192.168 234.567 203.869 234.2L199.547 268.136L194.841 295C231.551 267.291 259.569 247.024 278.894 234.2C298.218 221.376 317.92 209.976 338 200C325.082 188.476 309.47 176.232 291.165 163.267C272.859 150.302 243.761 130.879 203.869 105C206.608 121.693 208.47 133.754 209.457 141.184C210.444 148.614 211.16 155.975 211.607 163.267C198.608 161.423 181.279 158.851 159.619 155.55C137.96 152.249 105.42 147.221 62 140.467C65.8066 168.023 67.7099 187.868 67.7099 200C67.7099 212.132 65.8066 228.599 62 249.4" stroke="#000000" stroke-opacity="0.9" stroke-width="25" stroke-linecap="round" stroke-linejoin="round"/> </g>

</svg>