<?xml version="1.0" encoding="utf-8"?><!-- Uploaded to: SVG Repo, www.svgrepo.com, Generator: SVG Repo Mixer Tools -->
<svg width="25px" height="25px" viewBox="0 0 400 400" fill="none" xmlns="http://www.w3.org/2000/svg">
<path d="M283.196 167.32C283.196 179.466 281.949 195.532 281.949 204.306C281.949 213.081 283.196 257.039 283.196 265.241C283.196 273.443 283.196 287.973 283.196 294.454" stroke="#000000" stroke-opacity="0.9" stroke-width="16" stroke-linecap="round" stroke-linejoin="round"/>
<path d="M119.914 293.208C124.989 262.087 120.744 204.644 120.744 196.501C120.744 188.358 119.914 172.214 119.914 166.074" stroke="#000000" stroke-opacity="0.9" stroke-width="16" stroke-linecap="round" stroke-linejoin="round"/>
<path d="M309.235 194.742C311.011 194.574 294.824 178.789 273.897 161.167C263.568 152.47 250.094 139.817 239.543 131.38C225.833 120.416 212.546 111.623 199.684 105C195.051 105 154.848 137.2 151.842 139.602C143.311 146.416 107.8 178.291 103.095 182.242C98.9139 185.752 94.8628 189.298 90.7642 192.83C90.4867 193.069 90.2966 193.331 90 193.653" stroke="#000000" stroke-opacity="0.9" stroke-width="16" stroke-linecap="round" stroke-linejoin="round"/>
<path d="M158.702 293.832C159.28 284.179 159.28 275.038 158.702 266.41C157.836 253.469 157.163 238.989 159.775 238.989C162.387 238.989 164.108 238.989 165.995 238.989C167.882 238.989 178.867 238.989 180.631 238.989C182.396 238.989 185.521 238.989 186.915 238.989C188.309 238.989 188.309 240.435 188.309 244.109C188.309 247.782 190.066 288.994 188.309 293.832" stroke="#000000" stroke-opacity="0.9" stroke-width="16" stroke-linecap="round" stroke-linejoin="round"/>
<path d="M219.148 207.302C224.925 207.692 230.57 207.584 236.085 206.979C244.356 206.072 253.279 204.945 253.279 207.68C253.279 210.415 253.279 212.215 253.279 214.191C253.279 216.166 253.279 227.665 253.279 229.512C253.279 231.359 253.279 234.63 253.279 236.09C253.279 237.549 252.355 237.549 250.007 237.549C247.66 237.549 221.32 239.388 218.228 237.549C215.137 235.71 215.997 221.065 215.997 219.42C215.997 217.775 215.997 215.99 215.997 214.75" stroke="#000000" stroke-opacity="0.9" stroke-width="16" stroke-linecap="round" stroke-linejoin="round"/>
</svg>