<?xml version="1.0" encoding="utf-8"?><!-- Uploaded to: SVG Repo, www.svgrepo.com, Generator: SVG Repo Mixer Tools -->
<svg width="60px" height="60px" viewBox="0 0 400 400" fill="none" xmlns="http://www.w3.org/2000/svg">
<path d="M53 254.556C58.0653 264.659 66.5842 264.659 78.5567 254.556C81.9213 266.731 84.6593 279.105 88.5987 291.113C109.571 355.047 171.238 258.109 172.269 258.807C174.689 260.445 192.036 286.81 210.428 287.133C225.703 287.401 242.69 261.927 243.389 260.506C246.609 253.965 250.851 273.189 255.94 278.36C262.431 284.956 300.974 328.982 312 320.018C329.794 305.554 314.612 267.818 321.691 254.556C324.335 249.602 336.887 258.807 346.557 254.556" stroke="#000000" stroke-opacity="0.9" stroke-width="16" stroke-linecap="round" stroke-linejoin="round"/>
<path d="M145.999 165.862C139.33 166.701 136.912 170.732 136.912 177.129C136.912 181.393 141.318 184.917 150.129 187.699C160.078 254.314 263.023 254.314 269.215 182.332C277.339 177.313 281.401 173.687 281.401 171.455C281.401 167.353 279.923 164.461 272.267 161.956" stroke="#000000" stroke-opacity="0.9" stroke-width="16" stroke-linecap="round" stroke-linejoin="round"/>
<path d="M164.615 142.759C173.591 127.88 176.891 113.002 176.891 113.002C176.891 113.002 198.84 134.865 260.114 142.759" stroke="#000000" stroke-opacity="0.9" stroke-width="16" stroke-linecap="round" stroke-linejoin="round"/>
<path d="M222.651 168.151C222.651 164.905 222.651 161.656 222.651 158.408" stroke="#000000" stroke-opacity="0.9" stroke-width="16" stroke-linecap="round" stroke-linejoin="round"/>
<path d="M197.789 169.775C197.789 167.07 197.789 164.361 197.789 161.656" stroke="#000000" stroke-opacity="0.9" stroke-width="16" stroke-linecap="round" stroke-linejoin="round"/>
<path d="M225.199 205.498C219.047 198.145 216.178 197.784 209.9 200.722" stroke="#000000" stroke-opacity="0.9" stroke-width="16" stroke-linecap="round" stroke-linejoin="round"/>
<path d="M122.668 263.799C104.52 194.148 130.956 100.107 159.566 100.107" stroke="#000000" stroke-opacity="0.9" stroke-width="16" stroke-linecap="round" stroke-linejoin="round"/>
<path d="M179.199 87.8977C312.496 32.1588 310.635 228.439 298.66 263.799" stroke="#000000" stroke-opacity="0.9" stroke-width="16" stroke-linecap="round" stroke-linejoin="round"/>
</svg>